<svg width="316" height="46" viewBox="0 0 316 46" fill="none" xmlns="http://www.w3.org/2000/svg">
<g filter="url(#filter0_d_4_6)">
<path d="M11.6348 37.9426C9.96975 37.9863 8.56868 37.6303 7.4316 36.8745C6.29452 36.1192 5.43494 35.0379 4.85282 33.6312C4.2843 32.2109 4 30.5391 4 28.6162C4 26.6527 4.19632 24.6705 4.58887 22.6697C4.99499 20.6684 5.57707 18.7574 6.33511 16.9365C7.10671 15.1153 8.04075 13.4862 9.13724 12.0492C10.2473 10.5982 11.5062 9.44812 12.914 8.59876C14.3354 7.74906 15.8921 7.30204 17.5842 7.25774C18.8296 7.22512 20.075 7.34825 21.3204 7.62707C22.5658 7.90593 23.7095 8.43115 24.7519 9.20282L21.5031 14.7722C20.8398 14.275 20.2171 13.9054 19.635 13.6633C19.053 13.4213 18.4709 13.3078 17.8888 13.3231C16.9818 13.3468 16.1696 13.7473 15.4522 14.5244C14.7482 15.3011 14.1391 16.2988 13.6247 17.5175C13.1103 18.7226 12.6839 20.0067 12.3455 21.3697C12.007 22.7192 11.7566 23.9986 11.5942 25.2081C11.4317 26.4039 11.3505 27.3675 11.3505 28.0988C11.3505 29.4529 11.54 30.4094 11.9191 30.9682C12.3116 31.5267 12.8599 31.7967 13.5638 31.7783C14.4843 31.7541 15.3845 31.5816 16.2644 31.2607C17.1578 30.9258 18.0309 30.5306 18.8837 30.0749V36.2294C17.8143 36.7993 16.6299 37.216 15.3303 37.4805C14.0308 37.7582 12.799 37.9121 11.6348 37.9426ZM32.3057 37.4015C30.3425 37.4528 28.7184 37.1432 27.4323 36.4728C26.1597 35.7884 25.2123 34.7166 24.5897 33.2568C23.9667 31.7834 23.6555 29.889 23.6555 27.5734C23.6555 26.0162 23.791 24.4283 24.0617 22.8098C24.3325 21.1912 24.7318 19.61 25.2594 18.0659C25.8009 16.508 26.4644 15.0553 27.2496 13.7077C28.0348 12.36 28.9417 11.165 29.9706 10.1224C30.9991 9.07986 32.1431 8.25772 33.4021 7.65602C34.6744 7.05397 36.0551 6.73341 37.5444 6.69445C40.5357 6.6161 42.7017 7.41249 44.0419 9.08364C45.3956 10.7409 46.0723 13.2148 46.0723 16.5053C46.0723 17.8324 45.9575 19.264 45.7273 20.8002C45.5107 22.3226 45.1654 23.8618 44.6915 25.4179C44.218 26.9605 43.6155 28.4387 42.8844 29.8527C42.1536 31.2666 41.2738 32.5354 40.2449 33.6593C39.2295 34.7693 38.0585 35.6598 36.7322 36.331C35.419 37.0018 33.9433 37.3585 32.3057 37.4015ZM32.7927 31.1935C33.4292 31.1768 34.0178 30.9177 34.5593 30.416C35.1143 29.914 35.6152 29.2508 36.0621 28.4267C36.5086 27.5889 36.9013 26.6511 37.2397 25.613C37.5916 24.5747 37.8827 23.5108 38.1129 22.4215C38.3428 21.3186 38.5189 20.2578 38.6409 19.239C38.7626 18.2066 38.8236 17.291 38.8236 16.492C38.8236 15.2191 38.661 14.2823 38.3362 13.6814C38.0114 13.067 37.551 12.7676 36.9554 12.7832C36.3193 12.7998 35.7303 13.059 35.1888 13.5607C34.6474 14.0488 34.1464 14.7119 33.6864 15.55C33.2396 16.3742 32.8471 17.2985 32.5085 18.323C32.1701 19.3475 31.8789 20.4113 31.6356 21.5146C31.4054 22.6039 31.2293 23.658 31.1076 24.6768C30.9856 25.6956 30.9249 26.6112 30.9249 27.4237C30.9249 28.4664 30.9925 29.2636 31.1277 29.8152C31.2768 30.353 31.4934 30.7197 31.7777 30.9154C32.062 31.1111 32.4003 31.2037 32.7927 31.1935ZM45.8695 36.6402L52.1437 6.77931L59.8392 6.5778L62.9055 23.4582L63.0476 23.4544C63.1557 22.7204 63.2642 21.9999 63.3724 21.2929C63.4944 20.572 63.6095 19.8919 63.7177 19.2526C63.8394 18.613 63.9479 18.0549 64.0425 17.5785L66.3981 6.40606L72.9361 6.23485L66.6619 36.0956L58.9258 36.298L55.8391 18.8699L55.758 18.872C55.6634 19.5245 55.5684 20.1498 55.4737 20.7481C55.3926 21.3461 55.3115 21.9102 55.23 22.4404C55.1489 22.9707 55.0678 23.4671 54.9863 23.9296C54.9052 24.3786 54.8307 24.78 54.7631 25.1339L52.3468 36.4703L45.8695 36.6402ZM77.5658 36.2162C76.0904 36.2551 74.7842 36.1538 73.6471 35.9126C72.5097 35.6581 71.4607 35.171 70.4998 34.4514L72.0022 27.3434C72.7063 27.9478 73.5792 28.5005 74.6216 29.0013C75.664 29.4886 76.6589 29.7198 77.6063 29.695C77.918 29.6868 78.2428 29.6445 78.5811 29.5679C78.933 29.4774 79.2578 29.3335 79.5556 29.1362C79.8537 28.9388 80.0971 28.6615 80.2867 28.3045C80.4763 27.9339 80.571 27.4575 80.571 26.8752C80.571 26.4554 80.51 26.0643 80.3883 25.7019C80.2666 25.3259 80.0295 24.9326 79.6776 24.5221C79.3393 24.1112 78.8449 23.6366 78.1953 23.0984C77.3425 22.4031 76.6454 21.6901 76.1039 20.9595C75.5624 20.2289 75.1631 19.4201 74.9058 18.5331C74.6621 17.6457 74.5405 16.6197 74.5405 15.4552C74.5405 14.1281 74.7436 12.877 75.1495 11.7018C75.5693 10.5127 76.1919 9.46049 77.0177 8.54514C77.857 7.6294 78.9129 6.90439 80.1851 6.37001C81.4712 5.83532 82.9737 5.54544 84.6931 5.50044C85.8166 5.47101 86.9943 5.62299 88.2259 5.95634C89.458 6.28969 90.595 6.82868 91.6374 7.57324L88.5511 13.8899C87.7254 13.248 86.9468 12.7606 86.216 12.4276C85.4849 12.0812 84.8488 11.915 84.3073 11.9292C83.996 11.9373 83.6913 11.9995 83.3935 12.1156C83.1092 12.2178 82.8451 12.3737 82.6017 12.5832C82.3715 12.7924 82.1888 13.068 82.0533 13.41C81.9181 13.7386 81.8501 14.1398 81.8501 14.6138C81.8501 14.9523 81.9112 15.3028 82.0328 15.6652C82.1549 16.0141 82.3986 16.4004 82.764 16.8242C83.1293 17.248 83.6843 17.7345 84.429 18.2837C85.2953 18.9246 85.9789 19.6176 86.4798 20.3628C86.9943 21.0941 87.3596 21.9106 87.5763 22.8122C87.8065 23.7134 87.9216 24.726 87.9216 25.8499C87.9216 27.1229 87.7118 28.3674 87.292 29.5836C86.8726 30.7997 86.2361 31.8997 85.3833 32.8834C84.5441 33.8669 83.4746 34.6601 82.175 35.2629C80.8757 35.8519 79.3393 36.1698 77.5658 36.2162ZM98.5207 35.6675C96.9233 35.7094 95.5495 35.4609 94.3989 34.9225C93.2484 34.3703 92.3616 33.5608 91.739 32.4938C91.1296 31.4263 90.8252 30.141 90.8252 28.6379C90.8252 28.164 90.8588 27.6147 90.9268 26.99C91.0079 26.3514 91.1095 25.7191 91.2312 25.093L95.3533 5.64784L102.298 5.46599L98.1758 25.033C98.0808 25.4553 98.0063 25.8567 97.9522 26.2373C97.9117 26.6175 97.8912 26.9566 97.8912 27.2545C97.8912 28.0399 98.0198 28.6052 98.277 28.9506C98.5478 29.2956 98.9471 29.4612 99.4751 29.4474C100.017 29.4332 100.484 29.2787 100.876 28.9841C101.282 28.6891 101.628 28.2129 101.912 27.5555C102.21 26.8841 102.474 25.9902 102.704 24.8738L106.866 5.34635L113.811 5.16449L109.445 25.7738C109.012 27.8841 108.342 29.6688 107.435 31.1279C106.528 32.5735 105.343 33.6811 103.882 34.4507C102.433 35.2064 100.646 35.612 98.5207 35.6675ZM111.78 34.9142L118.054 5.05339L127.07 4.81731L127.496 21.9496L127.618 21.9464L134.888 4.61261L144.512 4.36055L138.177 34.2229L131.436 34.3994L134.319 20.8772C134.387 20.5098 134.461 20.149 134.542 19.7948C134.637 19.4403 134.739 19.0855 134.847 18.7306C134.955 18.3757 135.057 18.021 135.151 17.6664L135.03 17.6696L127.7 34.4971L122.055 34.6452L121.709 18.2622L121.588 18.2653C121.506 18.8227 121.425 19.3664 121.344 19.8967C121.276 20.4131 121.202 20.9093 121.121 21.3853C121.039 21.8614 120.945 22.3243 120.836 22.774L118.298 34.7433L111.78 34.9142ZM142.644 34.1058L148.918 4.24518L162.401 3.89211L161.142 9.91719L154.624 10.0878L153.446 15.4811L159.518 15.3222L158.238 21.3477L152.208 21.5057L150.827 27.8183L157.406 27.646L156.106 33.7532L142.644 34.1058ZM160.066 33.6495L166.34 3.78898L173.041 3.6135C176.1 3.53338 178.334 4.08426 179.742 5.26614C181.15 6.43445 181.854 8.14935 181.854 10.4108C181.854 12.1034 181.623 13.6261 181.163 14.9788C180.716 16.3311 180.074 17.4989 179.234 18.4824C178.395 19.4522 177.407 20.2094 176.27 20.7537L179.437 33.1424L171.742 33.3438L169.752 22.3666L169.285 22.3788L167.01 33.4679L160.066 33.6495ZM170.543 16.7397L171.132 16.7242C171.714 16.709 172.215 16.5469 172.635 16.238C173.055 15.9156 173.4 15.5003 173.67 14.9922C173.941 14.484 174.144 13.9303 174.28 13.3309C174.415 12.7316 174.483 12.1407 174.483 11.5585C174.483 10.8408 174.32 10.3033 173.995 9.94624C173.67 9.58911 173.17 9.41942 172.493 9.43716L172.046 9.44885L170.543 16.7397ZM188.209 32.9129L194.483 3.05201L201.428 2.87019L199.052 14.165L204.169 14.031L206.585 2.73513L213.53 2.55327L207.215 32.4151L200.27 32.5967L202.89 20.1379L197.773 20.2719L195.153 32.7309L188.209 32.9129ZM211.641 32.2993L217.915 2.43842L231.398 2.08538L230.139 8.11042L223.621 8.28112L222.444 13.6744L228.515 13.5154L227.236 19.541L221.205 19.6989L219.824 26.0115L226.403 25.8392L225.104 31.9466L211.641 32.2993ZM226.85 31.9009L239.663 1.74711L248.516 1.51526L248.983 31.3213L241.571 31.5154L241.733 25.7222L236.678 25.8546L234.464 31.7015L226.85 31.9009ZM238.952 19.7623L242.119 19.6793L242.444 11.9725C242.472 11.3083 242.499 10.6508 242.526 10.0001C242.553 9.34942 242.614 8.6369 242.708 7.86256L242.566 7.86627C242.444 8.58715 242.295 9.26813 242.119 9.90918C241.957 10.5364 241.761 11.1915 241.531 11.8746L238.952 19.7623ZM251.196 31.2634L257.47 1.40266L264.414 1.22081L259.379 24.9757L266.364 24.7928L265.125 30.8986L251.196 31.2634ZM271.095 30.7423L276.07 7.02957L271.298 7.15454L272.577 1.00705L289.126 0.573717L287.847 6.72118L283.014 6.84774L278.039 30.5605L271.095 30.7423ZM285.715 30.3595L291.989 0.498745L298.933 0.3169L296.558 11.6117L301.675 11.4778L304.091 0.181845L311.035 0L304.72 29.8618L297.776 30.0436L300.396 17.5846L295.278 17.7186L292.659 30.1776L285.715 30.3595Z" fill="url(#paint0_linear_4_6)"/>
</g>
<defs>
<filter id="filter0_d_4_6" x="0" y="0" width="315.035" height="45.9462" filterUnits="userSpaceOnUse" color-interpolation-filters="sRGB">
<feFlood flood-opacity="0" result="BackgroundImageFix"/>
<feColorMatrix in="SourceAlpha" type="matrix" values="0 0 0 0 0 0 0 0 0 0 0 0 0 0 0 0 0 0 127 0" result="hardAlpha"/>
<feOffset dy="4"/>
<feGaussianBlur stdDeviation="2"/>
<feComposite in2="hardAlpha" operator="out"/>
<feColorMatrix type="matrix" values="0 0 0 0 0.447059 0 0 0 0 0.333333 0 0 0 0 0.854902 0 0 0 0.25 0"/>
<feBlend mode="normal" in2="BackgroundImageFix" result="effect1_dropShadow_4_6"/>
<feBlend mode="normal" in="SourceGraphic" in2="effect1_dropShadow_4_6" result="shape"/>
</filter>
<linearGradient id="paint0_linear_4_6" x1="158.722" y1="-11.3811" x2="160.112" y2="41.6976" gradientUnits="userSpaceOnUse">
<stop offset="0.520833" stop-color="white"/>
<stop offset="0.5625" stop-color="#F5F4F4"/>
</linearGradient>
</defs>
</svg>
